<?xml version="1.0" ?><!DOCTYPE svg  PUBLIC '-//W3C//DTD SVG 1.1//EN'  'http://www.w3.org/Graphics/SVG/1.1/DTD/svg11.dtd'><svg enable-background="new 0 0 24 24" height="24px" id="Layer_1" version="1.1" viewBox="0 0 24 24" width="24px" xml:space="preserve" xmlns="http://www.w3.org/2000/svg" xmlns:xlink="http://www.w3.org/1999/xlink"><g><path d="M0,5v18c0,0.6,0.4,1,1,1h8c0.6,0,1-0.5,1-1s0-17.4,0-17.4L5,0L0,5z M8,22H2v-3h6V22z M8,18H2V6h6V18z M2.5,5L5,2.5L7.5,5   H2.5z"/><path d="M24,1c0-0.6-0.4-1-1-1H13c-0.6,0-1,0.4-1,1v22c0,0.6,0.4,1,1,1h10c0.6,0,1-0.4,1-1V1z M22,4h-4v1h4v1h-2v1h2v1h-2v1h2v1h-4   v1h4v1h-2v1h2v1h-2v1h2v1h-4v1h4v1h-2v1h2v3h-8V2h8V4z"/></g></svg>